<?xml version="1.0" standalone="no"?>
<!DOCTYPE svg PUBLIC "-//W3C//DTD SVG 20010904//EN"
 "http://www.w3.org/TR/2001/REC-SVG-20010904/DTD/svg10.dtd">
<svg version="1.0" xmlns="http://www.w3.org/2000/svg"
 width="1280.000000pt" height="1280.000000pt" viewBox="0 0 1280.000000 1280.000000"
 preserveAspectRatio="xMidYMid meet">
<metadata>
Created by potrace 1.16, written by Peter Selinger 2001-2019
</metadata>
<g transform="translate(0.000000,1280.000000) scale(0.100000,-0.100000)"
fill="#000000" stroke="none">
<path d="M538 11351 c-162 -52 -290 -197 -318 -362 -8 -46 -10 -1120 -8 -3789
3 -3510 4 -3728 20 -3776 25 -71 54 -111 123 -167 128 -103 188 -117 531 -124
l241 -5 6 -122 c21 -456 225 -880 583 -1214 279 -261 590 -412 959 -467 139
-20 434 -21 567 0 342 52 621 177 883 397 404 338 639 795 662 1285 l6 123
1367 0 1367 0 6 -123 c21 -457 224 -881 583 -1215 279 -261 590 -412 959 -467
139 -20 434 -21 567 0 342 52 621 177 883 397 404 338 639 795 662 1285 l6
123 407 0 c412 0 574 9 665 35 63 19 200 117 237 170 59 86 78 287 37 407 -52
156 -197 281 -358 308 l-70 12 -4 1501 c-4 1563 -4 1588 -47 1760 -23 93 -90
238 -156 340 -36 54 -234 259 -798 825 -413 414 -782 777 -821 807 -118 90
-259 158 -445 214 l-85 25 -652 4 -653 3 0 712 c0 764 0 770 -51 870 -30 58
-129 159 -190 192 -109 59 169 55 -3884 54 -3590 0 -3732 -1 -3787 -18z m9142
-2763 c67 -40 1465 -1443 1485 -1490 11 -27 15 -73 15 -168 l0 -130 -1365 0
-1365 0 0 910 0 911 593 -3 592 -3 45 -27z m-6502 -4568 c307 -77 579 -348
664 -660 31 -116 31 -327 0 -441 -81 -300 -322 -554 -612 -647 -271 -87 -571
-38 -796 131 -77 58 -187 175 -237 249 -191 289 -194 676 -8 958 157 239 392
394 652 430 89 12 244 3 337 -20z m6400 0 c307 -77 579 -348 664 -660 31 -116
31 -327 0 -441 -81 -300 -322 -554 -612 -647 -271 -87 -571 -38 -796 131 -77
58 -187 175 -237 249 -191 289 -194 676 -8 958 157 239 392 394 652 430 89 12
244 3 337 -20z"/>
</g>
</svg>
